<svg xmlns="http://www.w3.org/2000/svg" viewBox="0 0 31.63 31.63"><defs><style>.cls-1{fill:#fff;}</style></defs><title>geolocate</title><g id="Layer_2" data-name="Layer 2"><g id="_ux-locate-on" data-name="%ux-locate-on"><g id="locate-on"><path class="cls-1" d="M15.81,24.54a8.72,8.72,0,1,1,8.72-8.72A8.73,8.73,0,0,1,15.81,24.54Zm0-15.19a6.46,6.46,0,1,0,6.46,6.46A6.47,6.47,0,0,0,15.81,9.35Z"/><circle class="cls-1" cx="15.81" cy="15.81" r="2.68"/><path class="cls-1" d="M15.81,5.5a1.13,1.13,0,0,1-1.13-1.13V1.13a1.13,1.13,0,0,1,2.26,0V4.37A1.13,1.13,0,0,1,15.81,5.5Z"/><path class="cls-1" d="M15.81,31.63a1.13,1.13,0,0,1-1.13-1.13V27.26a1.13,1.13,0,1,1,2.26,0V30.5A1.13,1.13,0,0,1,15.81,31.63Z"/><path class="cls-1" d="M4.37,16.94H1.13a1.13,1.13,0,0,1,0-2.26H4.37a1.13,1.13,0,0,1,0,2.26Z"/><path class="cls-1" d="M30.5,16.94H27.25a1.13,1.13,0,0,1,0-2.26H30.5a1.13,1.13,0,1,1,0,2.26Z"/></g></g></g></svg>